<svg id="Capa_1" enable-background="new 0 0 512 512" height="512" viewBox="0 0 512 512" width="512" xmlns="http://www.w3.org/2000/svg"><g id="XMLID_1460_"><path id="XMLID_2193_" d="m236 10h40v340h-40z" fill="#ffe6c0"/><path id="XMLID_1454_" d="m114.076 261.332c-33.323-57.674-13.618-131.307 44.056-164.63h77.868c-57.674 33.323-77.378 106.956-44.056 164.63z" fill="#ffd89e"/><path id="XMLID_2137_" d="m89.942 479.912c19.088-11.419 44.185-8.913 60.629 7.531 19.409 19.409 50.877 19.409 70.286 0 19.409-19.409 50.877-19.409 70.286 0 19.409 19.409 50.877 19.409 70.286 0 19.409-19.409 50.877-19.409 70.286 0 3.839 3.839 8.912 6.155 14.576 7.407 32.736-13.831 55.71-46.238 55.71-84.01v-60.84h-320.001l-38.333-48h-133.667v38.5c0 59.442 32.119 111.374 79.942 139.412z" fill="#d29976"/><path id="XMLID_2232_" d="m143.667 302h-133.667v38.5c0 3.191.111 6.355.294 9.5h171.706z" fill="#8690a6"/><path id="XMLID_2745_" d="m422.127 10h-146.127v104h146.127l-39.663-52z" fill="#8690a6"/><g fill="#dff6fc"><circle id="XMLID_1982_" cx="409.667" cy="411" r="21"/><circle id="XMLID_2859_" cx="321" cy="411" r="21"/><circle id="XMLID_2876_" cx="232.333" cy="411" r="21"/><circle id="XMLID_2878_" cx="143.667" cy="411" r="21"/></g><g id="XMLID_183_"><path id="XMLID_205_" d="m409.667 380c-17.093 0-31 13.906-31 31s13.907 31 31 31 31-13.906 31-31-13.907-31-31-31zm0 42c-6.065 0-11-4.935-11-11s4.935-11 11-11 11 4.935 11 11-4.935 11-11 11z"/><path id="XMLID_224_" d="m321 380c-17.093 0-31 13.906-31 31s13.907 31 31 31 31-13.906 31-31-13.907-31-31-31zm0 42c-6.065 0-11-4.935-11-11s4.935-11 11-11 11 4.935 11 11-4.935 11-11 11z"/><path id="XMLID_624_" d="m232.333 380c-17.093 0-31 13.906-31 31s13.907 31 31 31 31-13.906 31-31-13.906-31-31-31zm0 42c-6.065 0-11-4.935-11-11s4.935-11 11-11 11 4.935 11 11-4.934 11-11 11z"/><path id="XMLID_627_" d="m143.667 380c-17.093 0-31 13.906-31 31s13.907 31 31 31 31-13.906 31-31-13.907-31-31-31zm0 42c-6.065 0-11-4.935-11-11s4.935-11 11-11 11 4.935 11 11-4.935 11-11 11z"/><path id="XMLID_636_" d="m317.736 79.072c1.953 1.952 4.512 2.929 7.071 2.929s5.119-.977 7.071-2.929l2.929-2.929 2.929 2.929c1.953 1.952 4.512 2.929 7.071 2.929s5.119-.977 7.071-2.929c3.905-3.905 3.905-10.237 0-14.143l-2.928-2.929 2.929-2.929c3.905-3.905 3.905-10.237 0-14.143-3.905-3.904-10.237-3.904-14.143 0l-2.929 2.929-2.929-2.929c-3.905-3.904-10.237-3.904-14.143 0-3.905 3.905-3.905 10.237 0 14.143l2.93 2.929-2.929 2.929c-3.904 3.905-3.904 10.238 0 14.143z"/><path id="XMLID_639_" d="m493.698 468.888c11.973-17.062 18.302-37.136 18.302-58.048v-60.84c0-5.522-4.477-10-10-10h-48.914l-50.047-68.669h4.627c5.523 0 10-4.478 10-10s-4.477-10-10-10h-19.204l-92.8-127.331h126.465c3.802 0 7.276-2.156 8.962-5.564 1.687-3.407 1.294-7.477-1.011-10.5l-35.037-45.936 35.037-45.936c2.306-3.023 2.698-7.093 1.011-10.5-1.686-3.407-5.16-5.564-8.962-5.564h-186.127c-5.523 0-10 4.478-10 10v75.564h-98c-5.523 0-10 4.478-10 10s4.477 10 10 10h1.429c-39.497 36.805-52.604 95.2-31.449 145.767h-5.646c-5.523 0-10 4.478-10 10s4.477 10 10 10h133.666v68.669h-39.188l-35.331-44.24c-1.897-2.376-4.773-3.76-7.814-3.76h-133.667c-5.523 0-10 4.478-10 10v38.5c0 30.465 8.093 60.389 23.404 86.538 12.431 21.23 29.359 39.573 49.412 53.713-7.452 7.254-17.253 11.249-27.673 11.249-10.604 0-20.573-4.129-28.071-11.628-3.906-3.903-10.237-3.904-14.142 0-3.905 3.905-3.906 10.237 0 14.143 11.275 11.275 26.266 17.485 42.213 17.485s30.938-6.21 42.214-17.485c7.498-7.499 17.468-11.628 28.072-11.628s20.573 4.129 28.071 11.628c23.277 23.277 61.151 23.277 84.429 0 7.498-7.499 17.467-11.628 28.071-11.628s20.574 4.129 28.072 11.628c11.276 11.275 26.267 17.485 42.214 17.485s30.938-6.21 42.214-17.485c7.498-7.499 17.467-11.628 28.071-11.628s20.574 4.129 28.072 11.628c11.276 11.275 26.268 17.485 42.214 17.485s30.938-6.21 42.214-17.485c3.905-3.905 3.905-10.237 0-14.143-3.905-3.904-10.237-3.904-14.142 0-6.359 6.36-14.499 10.284-23.292 11.333 8.435-6.349 15.882-14.012 22.061-22.817zm-227.698-217.556h-20v-145.767h20zm20-106.632 77.715 106.632h-77.715zm88.513-88.764c-2.732 3.581-2.732 8.548 0 12.129l27.409 35.935h-115.922v-84h115.922zm-128.513-35.936h20v65.564h-20zm-83.21 85.565h44.508c-39.497 36.805-52.604 95.2-31.449 145.767h-55.834c-26.535-51.849-8.071-116.146 42.775-145.767zm35.093 145.767c-23.803-46.51-11.391-103.034 28.117-135.563v135.563zm48.117 20h20v68.668h-20zm-107.145 40.668 22.361 28h-141.216v-28zm305.289 172.858c-1.893-1.326-3.69-2.818-5.358-4.487-11.276-11.275-26.268-17.485-42.214-17.485s-30.938 6.21-42.214 17.485c-15.478 15.479-40.665 15.48-56.144 0-11.276-11.275-26.268-17.485-42.214-17.485s-30.938 6.21-42.214 17.485c-7.498 7.5-17.468 11.629-28.072 11.629s-20.574-4.129-28.072-11.628c-11.276-11.275-26.268-17.485-42.214-17.485-8.829 0-17.362 1.912-25.137 5.524-37.971-24.177-63.215-64.219-69.012-108.411h287.322c5.523 0 10-4.478 10-10s-4.477-10-10-10h-22.601v-68.669h92.291l50.047 68.669h-29.809c-5.523 0-10 4.478-10 10s4.477 10 10 10h93.471v50.84c0 31.866-19.049 61.016-47.856 74.018z"/><path id="XMLID_648_" d="m353.53 340c-2.63 0-5.21 1.069-7.07 2.93-1.86 1.86-2.93 4.43-2.93 7.07s1.07 5.21 2.93 7.069c1.86 1.86 4.44 2.931 7.07 2.931s5.21-1.07 7.07-2.931c1.86-1.859 2.93-4.439 2.93-7.069s-1.07-5.21-2.93-7.07-4.44-2.93-7.07-2.93z"/></g></g></svg>